<svg xmlns="http://www.w3.org/2000/svg" viewBox="0 0 176.231 185.134">
  <title>DonationIcon</title>
  <g id="Layer_2" data-name="Layer 2">
    <g id="Layer_1-2" data-name="Layer 1">
      <path d="M105.572,28.376c10.24-38.325,143.791-45.351,1.471,83.887" style="fill: none;stroke: #85a448;stroke-miterlimit: 10;stroke-width: 8px"/>
      <path d="M105.572,28.376c-5.766-34.354-140.627-45.329,1.67,83.887" style="fill: none;stroke: #85a448;stroke-miterlimit: 10;stroke-width: 8px"/>
      <path d="M101.923,28.6a7.551,7.551,0,0,0,1.678,3.178,1.508,1.508,0,0,0,2.507-.662,6.8,6.8,0,0,1,.568-2.538l-2.742-.358c.271,1,.141,2.61.984,3.324a1.584,1.584,0,0,0,1.818.235,1.771,1.771,0,0,0,.847-.944c.107-.223.183-.464.27-.7.131-.349.4-.556-.053-.328l-1.156.151.156.032-.9-.689a.6.6,0,0,1,.149.422,1.516,1.516,0,0,0,2.742.358,4.163,4.163,0,0,1,.357-.685l-2.742-.358.059.271v-.8l-.051.273a1.5,1.5,0,0,0,2.893.8l-.107.248L106.7,28.371c-.145.365-.868,1.293-1.278,1.129-.426-.17-.781-1.565-1.02-1.958-.723-1.186-2.937-.8-2.8.757a2.574,2.574,0,0,0,.359,1.222l2.59-1.514-.336-.543c-.853-1.379-3.386-.49-2.742,1.156.576,1.471,1.57,3.288,3.217,3.75a2.668,2.668,0,0,0,3.279-2.3,1.548,1.548,0,0,0-1.048-1.845,1.511,1.511,0,0,0-1.845,1.048c0,.016-.078.372-.079.371l.49-.161a3.287,3.287,0,0,1-.342-.351,4.56,4.56,0,0,1-.78-1.3l-2.742,1.156.336.543c1.014,1.638,3.6.138,2.59-1.514l.05.292-2.8.757c.914,1.5,1.435,3.476,3.585,3.492,1.953.015,3.522-1.682,4.2-3.38.593-1.494-1.5-2.374-2.507-1.459a2.454,2.454,0,0,0-.665,1.076l2.893.8a3.125,3.125,0,0,0-.008-1.342,1.516,1.516,0,0,0-2.742-.358,4.163,4.163,0,0,0-.357.685l2.742.358c-.269-1.088-1.01-2.188-2.3-1.86a1.861,1.861,0,0,0-1.127.908,5.949,5.949,0,0,0-.362.847l-.13.345q-.341.69.2.019l1.818.235q.371.759.182-.028-.034-.3-.086-.6c-.077-.465-.186-.92-.309-1.375a1.518,1.518,0,0,0-2.742-.358,8.354,8.354,0,0,0-.87,3.255l2.507-.662a4.28,4.28,0,0,1-.907-1.854c-.459-1.874-3.352-1.081-2.893.8Z" style="fill: #85a448"/>
      <path d="M105.313,113.847c.048.039.152.09.175.161l1.048-1.845a4.1,4.1,0,0,0-1.108.235,4.251,4.251,0,0,0-.871.661,1.508,1.508,0,0,0,.662,2.507,5.139,5.139,0,0,0,2.369.19,9.874,9.874,0,0,0,1.6-.859l-2.2-.9.038-.262.689-.9a1.336,1.336,0,0,1-1.457.014,1.5,1.5,0,0,0-2.121,2.121,4.153,4.153,0,0,0,2.856,1.247,5.073,5.073,0,0,0,2.984-1.154l-1.818-2.356a1.735,1.735,0,0,1-.841.31,1.513,1.513,0,0,0-1.048,1.845,1.533,1.533,0,0,0,1.845,1.048,4.664,4.664,0,0,0,2.165-1.082c1.317-1.084-.394-3.265-1.818-2.356-.731.467-1.423,1.168-2.2.376l-2.121,2.121a3.941,3.941,0,0,0,3.673.958,3.428,3.428,0,0,0,1.723-.738,2,2,0,0,0,.348-2,1.525,1.525,0,0,0-2.2-.9c-.279.126-.543.442-.82.528a3.133,3.133,0,0,1-.838-.162l.662,2.507c.139-.111.249-.239.388-.35l-.662.386a9.089,9.089,0,0,1,.929-.159,1.508,1.508,0,0,0,1.048-1.845,3.076,3.076,0,0,0-.947-1.485,1.543,1.543,0,0,0-2.121,0,1.512,1.512,0,0,0,0,2.121Z" style="fill: #85a448"/>
      <path d="M7.254,124.948c6.652-4.384,15.51-3.53,23.076-5.087,4.353-.9,8.605-2.15,13.081-2.254a61.857,61.857,0,0,1,13.739,1.715c4.249.868,7.485,1.932,10.968,4.559a85.113,85.113,0,0,0,8.815,6.241c6.876,3.943,14.511,6.475,22.1,8.644a115.228,115.228,0,0,0,24.5,4.442c1.342.093,3.608.245,4.74,1.21,2.491,2.122.036,4.823-2,5.962-3.676,2.057-8.8,1.992-12.853,2.3-8.826.673-17.688.738-26.535.743-2.488,0-5.076.3-7.358-.914a32.822,32.822,0,0,1-4.8-3.706L63,139.333c-4.466-3.606-10.873,2.723-6.364,6.364L66.9,153.984c3.141,2.536,6.357,5.771,10.16,7.289,3.412,1.362,7.173,1.157,10.778,1.148,4.743-.012,9.486-.038,14.227-.172,11.14-.316,38.55.57,36.154-17.51-.925-6.976-7.579-9.954-13.877-10.47-4.347-.357-8.446-.394-12.735-1.428-4.231-1.02-8.439-2.215-12.61-3.459-7.965-2.375-15.82-5.306-22.536-10.318-2.814-2.1-5.376-4.452-8.585-5.95-3.783-1.767-7.961-2.449-12.041-3.187a57.818,57.818,0,0,0-14.3-1.235c-4.619.328-9.08,1.554-13.595,2.491-8.555,1.776-17.637.993-25.226,5.994-4.816,3.174-.312,10.971,4.542,7.771Z" style="fill: #85a448"/>
      <path d="M136.042,143.386A82.638,82.638,0,0,1,151.6,125.848c2.75-2.321,6.214-5.463,9.741-6.508,1.728-.512,3.932-.847,4.987.951s-.769,4.247-1.639,5.936c-7.729,15.014-17.206,30.022-28.6,42.539-2.494,2.739-5.28,5.4-8.9,6.524-4.558,1.413-10.049.593-14.748.523-8.829-.131-17.8.182-26.6-.522-9.23-.738-16.618-6.025-24.921-9.545a98.419,98.419,0,0,0-23.686-6.531c-4.609-.7-9.234-1.118-13.876-1.523-3.889-.339-12-.319-13.762-4.332-.9-2.056-.329-5.268-.321-7.5q.012-3.927.029-7.854.036-8.345.09-16.69c.037-5.792-8.963-5.8-9,0Q.335,130.152.3,138.988c-.022,5.341-.874,11.425.412,16.653,2.494,10.139,16.141,10.493,24.5,11.2,11.493.972,23.07,2.966,33.646,7.764,4.525,2.053,8.8,4.595,13.391,6.517A46.03,46.03,0,0,0,88.6,184.437c11.292.444,22.994,1.025,34.279.469,10.769-.53,17.441-6.889,23.88-14.919a242.785,242.785,0,0,0,18.67-26.683c2.771-4.605,5.5-9.3,7.851-14.131,1.851-3.808,3.388-7.828,1.788-12.012-4.013-10.5-16.77-7.384-23.739-2.43a91.176,91.176,0,0,0-23.063,24.112c-3.211,4.84,4.58,9.352,7.771,4.542Z" style="fill: #85a448"/>
    </g>
  </g>
</svg>
