<svg xmlns="http://www.w3.org/2000/svg" viewBox="0 0 205.06 278.936">
  <title>HeadRecreationWhiteOutline</title>
  <g id="Layer_2" data-name="Layer 2">
    <g id="Layer_1-2" data-name="Layer 1">
      <line x1="65.435" y1="105.939" x2="95.552" y2="103.462" style="fill: none;stroke: #56595a;stroke-miterlimit: 10"/>
      <line x1="43.64" y1="95.735" x2="55.43" y2="104.155" style="fill: none;stroke: #56595a;stroke-miterlimit: 10"/>
      <line x1="41.758" y1="87.809" x2="49.783" y2="78.992" style="fill: none;stroke: #56595a;stroke-miterlimit: 10"/>
      <line x1="60.772" y1="49.358" x2="73.255" y2="49.358" style="fill: none;stroke: #56595a;stroke-miterlimit: 10"/>
      <line x1="58.608" y1="53.603" x2="76.168" y2="73.077" style="fill: none;stroke: #56595a;stroke-miterlimit: 10"/>
      <line x1="40.931" y1="59.904" x2="49.013" y2="67.926" style="fill: none;stroke: #56595a;stroke-miterlimit: 10"/>
      <line x1="68.669" y1="25.589" x2="84.348" y2="21.379" style="fill: none;stroke: #56595a;stroke-miterlimit: 10"/>
      <line x1="92.406" y1="24.282" x2="96.18" y2="29.872" style="fill: none;stroke: #56595a;stroke-miterlimit: 10"/>
      <line x1="106.052" y1="29.146" x2="116.215" y2="15.572" style="fill: none;stroke: #56595a;stroke-miterlimit: 10"/>
      <line x1="121.006" y1="15.426" x2="132.039" y2="24.936" style="fill: none;stroke: #56595a;stroke-miterlimit: 10"/>
      <line x1="108.883" y1="40.687" x2="116.215" y2="41.631" style="fill: none;stroke: #56595a;stroke-miterlimit: 10"/>
      <line x1="126.45" y1="45.696" x2="142.129" y2="47.729" style="fill: none;stroke: #56595a;stroke-miterlimit: 10"/>
      <line x1="156.937" y1="28.13" x2="153.888" y2="41.776" style="fill: none;stroke: #56595a;stroke-miterlimit: 10"/>
      <line x1="118.247" y1="49.035" x2="111.351" y2="63.117" style="fill: none;stroke: #56595a;stroke-miterlimit: 10"/>
      <line x1="109.537" y1="97.742" x2="116.287" y2="93.387" style="fill: none;stroke: #56595a;stroke-miterlimit: 10"/>
      <line x1="106.923" y1="109.502" x2="114.908" y2="119.083" style="fill: none;stroke: #56595a;stroke-miterlimit: 10"/>
      <line x1="120.062" y1="121.116" x2="138.5" y2="114.583" style="fill: none;stroke: #56595a;stroke-miterlimit: 10"/>
      <line x1="134.217" y1="124.745" x2="140.532" y2="117.704" style="fill: none;stroke: #56595a;stroke-miterlimit: 10"/>
      <line x1="135.16" y1="128.157" x2="148.807" y2="131.569" style="fill: none;stroke: #56595a;stroke-miterlimit: 10"/>
      <line x1="148.662" y1="114.22" x2="157.59" y2="114.51" style="fill: none;stroke: #56595a;stroke-miterlimit: 10"/>
      <line x1="158.026" y1="136.142" x2="164.922" y2="141.586" style="fill: none;stroke: #56595a;stroke-miterlimit: 10"/>
      <line x1="124.925" y1="39.962" x2="133.201" y2="32.34" style="fill: none;stroke: #56595a;stroke-miterlimit: 10"/>
      <line x1="171.6" y1="109.719" x2="176.826" y2="105.437" style="fill: none;stroke: #56595a;stroke-miterlimit: 10"/>
      <line x1="178.714" y1="105.364" x2="186.844" y2="119.011" style="fill: none;stroke: #56595a;stroke-miterlimit: 10"/>
      <line x1="158.607" y1="76.038" x2="158.171" y2="89.467" style="fill: none;stroke: #56595a;stroke-miterlimit: 10"/>
      <line x1="163.543" y1="92.806" x2="178.206" y2="87.58" style="fill: none;stroke: #56595a;stroke-miterlimit: 10"/>
      <line x1="181.617" y1="91.137" x2="178.423" y2="100.646" style="fill: none;stroke: #56595a;stroke-miterlimit: 10"/>
      <line x1="164.051" y1="69.433" x2="179.222" y2="65.948" style="fill: none;stroke: #56595a;stroke-miterlimit: 10"/>
      <line x1="177.988" y1="45.043" x2="181.69" y2="59.633" style="fill: none;stroke: #56595a;stroke-miterlimit: 10"/>
      <line x1="60.632" y1="75.835" x2="73.346" y2="77.682" style="fill: none;stroke: #56595a;stroke-miterlimit: 10"/>
      <line x1="61.409" y1="75.852" x2="72.514" y2="77.326" style="fill: none;stroke: #56595a;stroke-miterlimit: 10"/>
      <line x1="90.202" y1="76.416" x2="105.063" y2="69.68" style="fill: none;stroke: #56595a;stroke-miterlimit: 10"/>
      <line x1="88.023" y1="86.62" x2="97.434" y2="97.221" style="fill: none;stroke: #56595a;stroke-miterlimit: 10"/>
      <line x1="82.41" y1="50.69" x2="104.381" y2="65.504" style="fill: none;stroke: #56595a;stroke-miterlimit: 10"/>
      <line x1="82.826" y1="46.612" x2="93.728" y2="40.786" style="fill: none;stroke: #56595a;stroke-miterlimit: 10"/>
      <path d="M78.821,277.837s14.711-64.564-9.4-67.016c-23.616-2.4-39,8.135-46.915-6.026a4.015,4.015,0,0,1-.487-1.962V185.886a4.183,4.183,0,0,0-1.077-2.806c-2.286-2.531-7.405-8.351-7.308-9.616.125-1.627-.125-1.5,2.253-4.631,1.07-1.408,1.126-1.777.865-1.757a4.775,4.775,0,0,1-3.327-.724c-.61-.46-1.119-.966-1.167-1.4-.125-1.126,3.379-7.134,3.254-12.64-.1-4.245-8-7.152-11.62-8.26a4.122,4.122,0,0,1-2.7-2.572c-.9-2.588-1.6-7.126,2.431-10.819,6.007-5.507,17.977-27.74,16.77-33.165-1.365-6.135-.448-38.395,4.756-49.811C30.422,36.122,53.81,3.507,103.62.754c47.046-2.6,66.662,15.6,70.319,16.59.831.225,8.486,5.919,8.651,6.088,2.932,3,18.9,21.147,21.277,50.035,1.814,22.086,1.389,65.185-18.147,84.353-16.473,16.162-15.29,21.89-15.431,26.052-.013.389.158.754.153,1.143-.066,5.664,2.2,41.795,7.57,56.541.1.272.3.488.408.756,1.681,4.126,13.029,31.765,17.312,36.28" style="fill: none;stroke: #fff;stroke-miterlimit: 10"/>
      <circle cx="54.161" cy="74.042" r="8.357" style="fill: #83a640"/>
      <circle cx="37.494" cy="56.974" r="4.705" style="fill: #ba232a"/>
      <circle cx="54.714" cy="49.366" r="6.908" style="fill: #e37b1c"/>
      <circle cx="77.943" cy="48.563" r="6.307" style="fill: #16284e"/>
      <circle cx="38.593" cy="92.717" r="6.808" style="fill: #db781b"/>
      <circle cx="59.865" cy="106.686" r="6.452" style="fill: #007793"/>
      <circle cx="82.148" cy="80.003" r="10.312" style="fill: #be1e2d"/>
      <circle cx="109.277" cy="68.687" r="6.808" style="fill: #036f9d"/>
      <circle cx="102.469" cy="102.528" r="9.211" style="fill: #7fa045"/>
      <circle cx="65.425" cy="26.837" r="4.405" style="fill: #83a92f"/>
      <circle cx="88.856" cy="20.23" r="6.808" style="fill: #00759a"/>
      <circle cx="118.088" cy="12.821" r="4.205" style="fill: #b91724"/>
      <circle cx="101.104" cy="37.084" r="9.645" style="fill: #e27d21"/>
      <circle cx="120.692" cy="43.858" r="6.407" style="fill: #80a53c"/>
      <circle cx="136.108" cy="29.041" r="7.008" style="fill: #192555"/>
      <circle cx="158.134" cy="24.836" r="4.405" style="fill: #de7921"/>
      <circle cx="176.656" cy="41.556" r="4.505" style="fill: #182559"/>
      <circle cx="151.327" cy="49.867" r="10.412" style="fill: #c01d32"/>
      <circle cx="158.736" cy="70.29" r="6.808" style="fill: #da7821"/>
      <circle cx="183.765" cy="65.082" r="7.809" style="fill: #86a639"/>
      <circle cx="183.764" cy="85.707" r="6.608" style="fill: #007794"/>
      <circle cx="157.835" cy="94.417" r="6.708" style="fill: #c21c2c"/>
      <circle cx="177.356" cy="103.328" r="4.205" style="fill: #89a944"/>
      <circle cx="187.568" cy="121.149" r="4.205" style="fill: #bc1a2b"/>
      <circle cx="116.485" cy="122.15" r="4.205" style="fill: #1d274b"/>
      <circle cx="132.721" cy="126.74" r="3.421" style="fill: #b40b1e"/>
      <circle cx="143.119" cy="112.739" r="6.808" style="fill: #0079a3"/>
      <circle cx="153.529" cy="133.562" r="5.807" style="fill: #172856"/>
      <circle cx="166.244" cy="116.644" r="9.511" style="fill: #df721f"/>
      <circle cx="167.946" cy="143.375" r="4.605" style="fill: #82a642"/>
      <path d="M129.9,104.728S107.874,96.719,116.885,80.5c0,0,16.619-17.22,12.214-25.43,0,0,16.619,8.61,9.811,28.033C138.91,83.1,129.5,94.516,129.9,104.728Z" style="fill: #dbb207"/>
      <line x1="167.1" y1="147.321" x2="161.22" y2="160.822" style="fill: none;stroke: #56595a;stroke-miterlimit: 10"/>
      <path d="M134.917,105.678s-1.451-10.038,4.716-16.326c0,0,4.354-6.531,3.507-10.642,0,0,8.586,6.772,1.572,17.9C144.713,96.608,139.755,104.59,134.917,105.678Z" style="fill: #d8aa0e"/>
      <circle cx="160.815" cy="162.701" r="4.251" style="fill: #e47e1a"/>
    </g>
  </g>
</svg>
