<svg xmlns="http://www.w3.org/2000/svg" viewBox="0 0 182.04 157.033">
  <title>MoneyIcon</title>
  <g id="Layer_2" data-name="Layer 2">
    <g id="Layer_1-2" data-name="Layer 1">
      <ellipse cx="35.432" cy="65.388" rx="31.587" ry="10.014" style="fill: none;stroke: #85a448;stroke-miterlimit: 10;stroke-width: 7px"/>
      <line x1="4.175" y1="67.458" x2="4.175" y2="144.971" style="fill: none;stroke: #85a448;stroke-miterlimit: 10;stroke-width: 7px"/>
      <line x1="66.832" y1="66.588" x2="66.832" y2="144.101" style="fill: none;stroke: #85a448;stroke-miterlimit: 10;stroke-width: 7px"/>
      <path d="M3.236,141.811s34.434,23.662,65.948,0" transform="translate(-0.412)" style="fill: none;stroke: #85a448;stroke-miterlimit: 10;stroke-width: 7px"/>
      <path d="M.571,144.938a2.287,2.287,0,0,0,.345.248l.126-.466-.2-.065-.3.393c.284.174.354.3.7.335.32.032.318-.468,0-.5-.185-.018-.3-.175-.449-.267-.239-.146-.516.2-.3.393a.694.694,0,0,0,.554.212.252.252,0,0,0,.126-.466,1.076,1.076,0,0,1-.244-.17c-.243-.208-.6.144-.354.354Z" transform="translate(-0.412)" style="fill: #85a448"/>
      <path d="M70.848,143.687c.055.289.3,1.325-.123,1.476-.3.106-.172.59.133.482.848-.3.6-1.407.472-2.091-.06-.316-.542-.182-.482.133Z" transform="translate(-0.412)" style="fill: #85a448"/>
      <path d="M3.223,122.509s33.811,23.662,64.755,0" transform="translate(-0.412)" style="fill: none;stroke: #85a448;stroke-miterlimit: 10;stroke-width: 7px"/>
      <path d="M3.223,103.207s33.811,23.662,64.755,0" transform="translate(-0.412)" style="fill: none;stroke: #85a448;stroke-miterlimit: 10;stroke-width: 7px"/>
      <path d="M3.236,83.905s34.434,23.662,65.948,0" transform="translate(-0.412)" style="fill: none;stroke: #85a448;stroke-miterlimit: 10;stroke-width: 7px"/>
      <ellipse cx="146.417" cy="84.69" rx="31.587" ry="10.014" style="fill: none;stroke: #85a448;stroke-miterlimit: 10;stroke-width: 7px"/>
      <line x1="115.161" y1="87.387" x2="115.161" y2="146.177" style="fill: none;stroke: #85a448;stroke-miterlimit: 10;stroke-width: 7px"/>
      <line x1="177.817" y1="84.69" x2="177.817" y2="145.308" style="fill: none;stroke: #85a448;stroke-miterlimit: 10;stroke-width: 7px"/>
      <path d="M114.221,143.017s34.434,23.662,65.948,0" transform="translate(-0.412)" style="fill: none;stroke: #85a448;stroke-miterlimit: 10;stroke-width: 7px"/>
      <path d="M111.557,146.145a2.287,2.287,0,0,0,.345.248l.126-.466-.2-.065-.3.393c.284.174.354.3.7.335.32.032.318-.468,0-.5-.185-.018-.3-.175-.449-.267-.239-.146-.516.2-.3.393a.694.694,0,0,0,.554.212.252.252,0,0,0,.126-.466,1.076,1.076,0,0,1-.244-.17c-.243-.208-.6.144-.354.354Z" transform="translate(-0.412)" style="fill: #85a448"/>
      <path d="M181.833,144.893c.055.289.3,1.325-.123,1.476-.3.106-.172.59.133.482.848-.3.6-1.407.472-2.091-.06-.316-.542-.182-.482.133Z" transform="translate(-0.412)" style="fill: #85a448"/>
      <path d="M114.208,123.715s33.811,23.662,64.755,0" transform="translate(-0.412)" style="fill: none;stroke: #85a448;stroke-miterlimit: 10;stroke-width: 7px"/>
      <path d="M114.208,104.413s33.811,23.662,64.755,0" transform="translate(-0.412)" style="fill: none;stroke: #85a448;stroke-miterlimit: 10;stroke-width: 7px"/>
      <ellipse cx="92.131" cy="13.514" rx="31.587" ry="10.014" style="fill: none;stroke: #85a448;stroke-miterlimit: 10;stroke-width: 7px"/>
      <line x1="60.875" y1="15.584" x2="60.875" y2="60.607" style="fill: none;stroke: #85a448;stroke-miterlimit: 10;stroke-width: 6px"/>
      <line x1="123.531" y1="14.715" x2="123.531" y2="76.595" style="fill: none;stroke: #85a448;stroke-miterlimit: 10;stroke-width: 6px"/>
      <path d="M57.27,93.065a2.287,2.287,0,0,0,.345.248l.126-.466-.2-.065-.3.393c.284.174.354.3.7.335.32.032.318-.468,0-.5-.185-.018-.3-.175-.449-.267-.239-.146-.516.2-.3.393a.694.694,0,0,0,.554.212.252.252,0,0,0,.126-.466,1.076,1.076,0,0,1-.244-.17c-.243-.208-.6.144-.354.354Z" transform="translate(-0.412)" style="fill: #85a448"/>
      <path d="M127.547,91.813c.055.289.3,1.325-.123,1.476-.3.106-.172.59.133.482.848-.3.6-1.407.472-2.091-.06-.316-.542-.182-.482.133Z" transform="translate(-0.412)" style="fill: #85a448"/>
      <path d="M59.922,70.635s33.811,23.662,64.755,0" transform="translate(-0.412)" style="fill: none;stroke: #85a448;stroke-miterlimit: 10;stroke-width: 7px"/>
      <path d="M59.922,51.333s33.811,23.662,64.755,0" transform="translate(-0.412)" style="fill: none;stroke: #85a448;stroke-miterlimit: 10;stroke-width: 7px"/>
      <path d="M59.935,34.444s34.434,22.006,65.948,0" transform="translate(-0.412)" style="fill: none;stroke: #85a448;stroke-miterlimit: 10;stroke-width: 7px"/>
      <path d="M67.213,94.762s26.416,14.557,50.592,0" transform="translate(-0.412)" style="fill: none;stroke: #85a448;stroke-miterlimit: 10;stroke-width: 7px"/>
      <path d="M66.007,112.858s26.416,14.557,50.592,0" transform="translate(-0.412)" style="fill: none;stroke: #85a448;stroke-miterlimit: 10;stroke-width: 7px"/>
      <path d="M67.213,132.16s26.416,14.557,50.592,0" transform="translate(-0.412)" style="fill: none;stroke: #85a448;stroke-miterlimit: 10;stroke-width: 7px"/>
    </g>
  </g>
</svg>
